<?xml version="1.0" encoding="UTF-8" standalone="no"?>
<!-- Created with Inkscape (http://www.inkscape.org/) -->

<svg
   xmlns:dc="http://purl.org/dc/elements/1.1/"
   xmlns:cc="http://creativecommons.org/ns#"
   xmlns:rdf="http://www.w3.org/1999/02/22-rdf-syntax-ns#"
   xmlns:svg="http://www.w3.org/2000/svg"
   xmlns="http://www.w3.org/2000/svg"
   xmlns:sodipodi="http://sodipodi.sourceforge.net/DTD/sodipodi-0.dtd"
   xmlns:inkscape="http://www.inkscape.org/namespaces/inkscape"
   width="500"
   height="500"
   viewBox="0 0 132.29166 132.29167"
   version="1.1"
   id="svg1433"
   inkscape:version="0.92.2 5c3e80d, 2017-08-06"
   sodipodi:docname="activism.svg">
  <defs
     id="defs1427" />
  <sodipodi:namedview
     id="base"
     pagecolor="#ffffff"
     bordercolor="#666666"
     borderopacity="1.0"
     inkscape:pageopacity="0.0"
     inkscape:pageshadow="2"
     inkscape:zoom="0.98994949"
     inkscape:cx="126.35259"
     inkscape:cy="110.56633"
     inkscape:document-units="mm"
     inkscape:current-layer="layer1"
     showgrid="false"
     units="px"
     inkscape:window-width="1920"
     inkscape:window-height="1035"
     inkscape:window-x="0"
     inkscape:window-y="24"
     inkscape:window-maximized="1" />
  <metadata
     id="metadata1430">
    <rdf:RDF>
      <cc:Work
         rdf:about="">
        <dc:format>image/svg+xml</dc:format>
        <dc:type
           rdf:resource="http://purl.org/dc/dcmitype/StillImage" />
        <dc:title></dc:title>
      </cc:Work>
    </rdf:RDF>
  </metadata>
  <g
     inkscape:label="Layer 1"
     inkscape:groupmode="layer"
     id="layer1"
     transform="translate(0,-164.70832)">
    <circle
       style="opacity:0.95;fill:#141b1d;fill-opacity:1;stroke:none;stroke-width:0.2622022;stroke-opacity:1"
       id="path4504"
       cx="66.145836"
       cy="230.85416"
       r="66.145836" />
    <path
       style="fill:#0068b4;fill-opacity:1;stroke-width:0.05462906"
       d="m 64.082952,266.93707 c -1.02959,-0.0732 -2.28646,-0.20376 -3.11386,-0.32343 -11.65276,-1.6854 -21.74559,-8.95695 -27.06481,-19.49927 -3.46739,-6.87213 -4.63445,-14.68876 -3.33616,-22.34483 2.20212,-12.98611 11.43653,-23.82555 23.92743,-28.08625 7.70099,-2.62685 16.25045,-2.56061 23.8729,0.18495 12.57335,4.52886 21.652648,15.63824 23.540638,28.80423 0.28647,1.9977 0.33097,2.7007 0.33027,5.21707 -6.2e-4,2.51493 -0.0457,3.22288 -0.33186,5.21707 -0.93908,6.54513 -3.718418,12.76003 -8.007208,17.905 -5.6906,6.82662 -13.74473,11.33747 -22.49705,12.59985 -1.80909,0.26093 -2.63243,0.3169 -4.8893,0.33237 -1.17179,0.008 -2.26574,0.005 -2.43099,-0.007 z m -2.07591,-17.61023 c 0,-4.53694 -0.0185,-8.24898 -0.0411,-8.24898 -0.0226,0 -2.65739,2.61641 -5.85512,5.81424 -4.95284,4.953 -5.80387,5.8265 -5.74535,5.89701 0.0378,0.0455 0.41709,0.31433 0.8429,0.59734 2.47772,1.64679 5.21128,2.88412 8.01255,3.62686 0.82634,0.21909 2.40585,0.55421 2.63585,0.55924 l 0.15023,0.003 v -8.24899 z m 9.92924,7.97427 c 3.76202,-0.82916 7.29291,-2.44425 10.36546,-4.74135 0.30046,-0.22463 0.57024,-0.42995 0.5995,-0.45626 0.0502,-0.0451 -11.68969,-11.84508 -11.78471,-11.84508 -0.0226,0 -0.0411,3.87184 -0.0411,8.60408 0,5.74149 0.0183,8.60407 0.055,8.60407 0.0303,0 0.39287,-0.0745 0.80578,-0.16546 z m -9.92924,-41.26176 v -11.90034 l -0.23217,0.0374 c -1.86846,0.30082 -4.11273,0.94405 -5.92118,1.69707 -7.53069,3.13572 -13.28739,9.51242 -15.60858,17.28964 -1.57411,5.27409 -1.48921,10.97629 0.24089,16.18012 0.74282,2.23428 1.71326,4.25809 2.96237,6.17789 l 0.38511,0.5919 9.08678,-9.08666 9.08678,-9.08666 z m 27.33618,28.76012 c 2.0387,-3.3987 3.25011,-6.98969 3.72498,-11.04191 0.1902,-1.62307 0.16129,-4.52307 -0.0626,-6.28234 -0.97876,-7.68959 -5.25918,-14.6337 -11.71446,-19.00428 -2.98588,-2.0216 -6.47804,-3.48821 -9.82387,-4.12573 l -0.39176,-0.0746 v 11.80712 11.80712 l 8.86356,8.86488 c 8.7986,8.7999 8.86427,8.86402 8.95979,8.74755 0.0529,-0.0645 0.25291,-0.37853 0.4444,-0.69777 z"
       id="path6333"
       inkscape:connector-curvature="0" />
  </g>
</svg>
