<?xml version="1.0" encoding="UTF-8" standalone="no"?>
<!-- Created with Inkscape (http://www.inkscape.org/) -->

<svg
   xmlns:dc="http://purl.org/dc/elements/1.1/"
   xmlns:cc="http://creativecommons.org/ns#"
   xmlns:rdf="http://www.w3.org/1999/02/22-rdf-syntax-ns#"
   xmlns:svg="http://www.w3.org/2000/svg"
   xmlns="http://www.w3.org/2000/svg"
   xmlns:sodipodi="http://sodipodi.sourceforge.net/DTD/sodipodi-0.dtd"
   xmlns:inkscape="http://www.inkscape.org/namespaces/inkscape"
   width="500"
   height="500"
   viewBox="0 0 132.29166 132.29167"
   version="1.1"
   id="svg5882"
   inkscape:version="0.92.2 5c3e80d, 2017-08-06"
   sodipodi:docname="communications.svg">
  <defs
     id="defs5876" />
  <sodipodi:namedview
     id="base"
     pagecolor="#ffffff"
     bordercolor="#666666"
     borderopacity="1.0"
     inkscape:pageopacity="0.0"
     inkscape:pageshadow="2"
     inkscape:zoom="0.49497475"
     inkscape:cx="-283.70506"
     inkscape:cy="1.3703369"
     inkscape:document-units="mm"
     inkscape:current-layer="layer1"
     showgrid="false"
     units="px"
     inkscape:window-width="1920"
     inkscape:window-height="1035"
     inkscape:window-x="0"
     inkscape:window-y="24"
     inkscape:window-maximized="1" />
  <metadata
     id="metadata5879">
    <rdf:RDF>
      <cc:Work
         rdf:about="">
        <dc:format>image/svg+xml</dc:format>
        <dc:type
           rdf:resource="http://purl.org/dc/dcmitype/StillImage" />
        <dc:title />
      </cc:Work>
    </rdf:RDF>
  </metadata>
  <g
     inkscape:label="Layer 1"
     inkscape:groupmode="layer"
     id="layer1"
     transform="translate(0,-164.70832)">
    <circle
       style="opacity:0.95;fill:#141b1d;fill-opacity:1;stroke:none;stroke-width:0.19961798;stroke-miterlimit:4;stroke-dasharray:none;stroke-opacity:1"
       id="path5155"
       cx="66.145836"
       cy="230.85416"
       r="66.145836" />
    <path
       style="fill:#0068b4;fill-opacity:1;stroke-width:0.0768005"
       d="m 101.67429,254.42707 c -2.403387,-0.51782 -6.099164,-2.18739 -9.345014,-4.22161 l -0.60315,-0.37801 -1.20313,0.30696 c -2.23258,0.5696 -3.95933,0.777 -6.44641,0.7743 -3.88747,-0.004 -7.44133,-0.77295 -10.51602,-2.27472 -1.49643,-0.73088 -3.43056,-2.05047 -4.25027,-2.89978 l -0.251,-0.26006 0.70526,-0.21112 c 1.73162,-0.51835 4.25853,-1.57489 5.94077,-2.48394 4.73014,-2.55606 8.19257,-5.93389 10.13773,-9.89004 0.84366,-1.71586 1.35694,-3.3797 1.58145,-5.12643 0.0628,-0.48836 0.12905,-0.74881 0.19054,-0.74881 0.25772,0 1.98051,0.33133 2.80462,0.53939 6.1981,1.56477 10.589744,5.23881 11.518154,9.63604 0.19594,0.92804 0.19734,2.36632 0.003,3.30306 -0.46752,2.25603 -1.8487,4.37343 -3.945874,6.04921 -0.66619,0.53232 -0.67297,0.5412 -0.62316,0.81571 0.0875,0.48196 0.42111,1.33395 0.73165,1.86824 0.648597,1.11595 2.024854,2.57902 3.814324,4.05492 0.97046,0.80041 1.21646,1.10093 1.00876,1.23234 -0.16118,0.10198 -0.48409,0.0799 -1.25245,-0.0856 z m -72.111404,-4.7379 c -0.11865,-0.0167 -0.2336,-0.0768 -0.25544,-0.13374 -0.0756,-0.19712 0.23432,-0.51749 1.46345,-1.51259 2.5275,-2.04628 4.50511,-3.91508 5.84514,-5.52354 1.00259,-1.20344 2.11165,-2.86942 1.98471,-2.98137 -0.0368,-0.0324 -0.3779,-0.25866 -0.75807,-0.50272 -4.22599,-2.71304 -7.12527,-6.40191 -8.09015,-10.29339 -0.28365,-1.14399 -0.35271,-1.75118 -0.34941,-3.07202 0.006,-2.386 0.57234,-4.49922 1.75753,-6.55753 2.56074,-4.44718 7.4087,-8.02343 13.67088,-10.08475 6.73325,-2.21637 14.59132,-2.50043 21.61934,-0.7815 5.55652,1.35903 10.29079,3.86494 13.57119,7.18342 2.40121,2.42908 3.82633,4.98304 4.41422,7.91072 0.25266,1.25823 0.25159,3.40586 -0.002,4.67206 -0.64474,3.21516 -2.38739,6.15035 -5.11899,8.62206 -4.78548,4.33018 -11.6629,6.95816 -19.66093,7.51277 -2.45099,0.16997 -6.16999,0.0191 -8.64006,-0.35057 -0.85485,-0.12792 -3.4482,-0.64066 -3.54596,-0.70108 -0.0318,-0.0197 -0.63807,0.27767 -1.34719,0.66076 -4.09399,2.21178 -8.03876,3.91118 -11.50376,4.95582 -2.06152,0.62151 -4.38615,1.07096 -5.05417,0.97719 z"
       id="path7177"
       inkscape:connector-curvature="0" />
  </g>
</svg>
