<?xml version="1.0" encoding="UTF-8" standalone="no"?>
<!-- Created with Inkscape (http://www.inkscape.org/) -->

<svg
   xmlns:dc="http://purl.org/dc/elements/1.1/"
   xmlns:cc="http://creativecommons.org/ns#"
   xmlns:rdf="http://www.w3.org/1999/02/22-rdf-syntax-ns#"
   xmlns:svg="http://www.w3.org/2000/svg"
   xmlns="http://www.w3.org/2000/svg"
   xmlns:sodipodi="http://sodipodi.sourceforge.net/DTD/sodipodi-0.dtd"
   xmlns:inkscape="http://www.inkscape.org/namespaces/inkscape"
   width="500"
   height="500"
   viewBox="0 0 132.29166 132.29167"
   version="1.1"
   id="svg4610"
   inkscape:version="0.92.2 5c3e80d, 2017-08-06"
   sodipodi:docname="memory.svg">
  <defs
     id="defs4604" />
  <sodipodi:namedview
     id="base"
     pagecolor="#ffffff"
     bordercolor="#666666"
     borderopacity="1.0"
     inkscape:pageopacity="0.0"
     inkscape:pageshadow="2"
     inkscape:zoom="0.7"
     inkscape:cx="-155.31179"
     inkscape:cy="224.91017"
     inkscape:document-units="mm"
     inkscape:current-layer="layer1"
     showgrid="false"
     units="px"
     inkscape:window-width="1920"
     inkscape:window-height="1035"
     inkscape:window-x="0"
     inkscape:window-y="24"
     inkscape:window-maximized="1" />
  <metadata
     id="metadata4607">
    <rdf:RDF>
      <cc:Work
         rdf:about="">
        <dc:format>image/svg+xml</dc:format>
        <dc:type
           rdf:resource="http://purl.org/dc/dcmitype/StillImage" />
        <dc:title />
      </cc:Work>
    </rdf:RDF>
  </metadata>
  <g
     inkscape:label="Layer 1"
     inkscape:groupmode="layer"
     id="layer1"
     transform="translate(0,-164.70832)">
    <circle
       style="opacity:0.95;fill:#141b1d;fill-opacity:1;stroke:none;stroke-width:0.19961798;stroke-miterlimit:4;stroke-dasharray:none;stroke-opacity:1"
       id="path5155"
       cx="66.145836"
       cy="230.85416"
       r="66.145836" />
    <path
       style="fill:#0068b4;fill-opacity:0.95294118;stroke-width:0.09446617"
       d="m 47.466973,258.26502 c 0.302902,-0.0163 0.734648,-0.0784 0.959425,-0.13792 0.58624,-0.15532 1.562475,-0.79485 2.25068,-1.47441 1.67616,-1.65511 6.587262,-5.50135 7.286183,-5.70632 1.509022,-0.44256 2.784903,-1.11685 3.925455,-2.07454 l 0.66122,-0.55522 0.297321,0.20896 c 1.868624,1.31347 3.432652,2.12354 5.78831,2.99803 1.6607,0.61648 2.091879,0.74339 2.909074,0.85607 1.708701,0.23562 3.220273,0.17685 4.852779,-0.18868 0.519596,-0.11633 1.521358,-0.32628 2.226144,-0.46653 1.360427,-0.27073 2.259954,-0.57536 2.762966,-0.9357 0.20542,-0.14716 0.427728,-0.44551 0.669533,-0.89857 0.65729,-1.23151 0.809865,-1.41728 1.381204,-1.68173 0.290046,-0.13423 0.681929,-0.38128 0.870849,-0.54896 l 0.343493,-0.3049 1.00751,0.18937 c 3.006514,0.5651 5.791474,0.35372 7.746283,-0.58795 0.901591,-0.43432 1.845767,-1.21069 2.427355,-1.99594 0.347484,-0.46916 0.549088,-0.64572 0.976626,-0.85526 1.358909,-0.66603 2.682343,-1.78445 3.299027,-2.788 0.41476,-0.67494 0.5969,-1.30882 0.61253,-2.13198 l 0.0119,-0.62865 0.35561,-0.29272 c 0.29427,-0.24221 0.40752,-0.42113 0.65649,-1.0372 0.33275,-0.82343 0.40866,-1.66443 0.24328,-2.69577 -0.0484,-0.30167 -0.0768,-0.94388 -0.0633,-1.42714 0.0601,-2.14207 -0.33724,-3.88461 -1.14439,-5.01878 -0.15858,-0.22283 -0.805739,-1.66548 -1.438123,-3.20587 -1.1446,-2.78807 -1.813373,-4.08386 -2.548495,-4.93789 -0.553051,-0.64251 -1.187237,-1.12319 -1.74962,-1.32614 -0.467207,-0.16858 -0.503321,-0.20518 -0.851513,-0.84375 -0.815658,-1.49826 -1.711979,-2.60773 -3.016567,-3.73396 -1.28054,-1.10548 -2.18044,-1.63649 -4.025799,-2.37556 -1.46507,-0.58677 -1.580918,-0.64816 -2.191005,-1.16268 -0.354285,-0.29874 -1.082118,-0.81885 -1.617407,-1.15581 -0.835241,-0.52577 -1.174839,-0.686 -2.394949,-1.12997 -2.109493,-0.76758 -2.068022,-0.74911 -2.891737,-1.28828 -0.598559,-0.39178 -1.042329,-0.60458 -2.047318,-0.98182 -1.476642,-0.55433 -2.615046,-0.75669 -3.953126,-0.70286 -0.782089,0.0315 -0.841065,0.0189 -1.831734,-0.39138 -1.551227,-0.64236 -3.168503,-0.9614 -4.95885,-0.97821 -0.473086,-0.004 -1.260459,-0.0738 -1.749714,-0.15411 -3.973509,-0.65228 -7.644869,-0.15495 -10.307826,1.39634 -0.451399,0.26295 -1.11369,0.61443 -1.471768,0.78103 -0.687927,0.3201 -1.319065,0.75653 -1.562917,1.08079 -0.100488,0.13367 -0.441104,0.24967 -1.08379,0.36916 -1.64785,0.30637 -3.278621,1.05707 -4.384756,2.01847 -0.696889,0.60569 -1.147442,1.16587 -1.605966,1.99672 -0.214669,0.38902 -0.415297,0.65492 -0.502148,0.66559 -1.293161,0.15889 -2.911192,1.18871 -4.208752,2.67871 -0.279439,0.32088 -0.72118,0.70719 -0.981636,0.85847 -1.158302,0.67281 -2.368729,2.09082 -3.549429,4.15813 -0.901381,1.57825 -2.336782,4.71874 -2.756351,6.03059 -1.06496,3.32976 -1.16048,5.87052 -0.303735,8.07948 0.7629,1.96702 2.116139,3.31667 4.184066,4.17301 l 0.842741,0.34898 -0.245865,0.38385 c -0.56148,0.87674 -0.731059,1.70816 -0.51471,2.52354 0.07705,0.29039 0.111475,0.66307 0.0765,0.8282 -0.183796,0.86758 0.268435,2.53557 1.008766,3.7206 1.125888,1.8022 3.872782,4.03461 6.112253,4.96747 2.024447,0.84374 3.935099,1.47824 5.067205,1.68394 0.595151,0.10813 1.093353,0.22382 1.107131,0.2571 0.01384,0.0332 -0.593063,0.76216 -1.348576,1.61978 -1.067126,1.21136 -1.419222,1.66936 -1.577903,2.05255 -0.112342,0.27129 -0.206192,0.56693 -0.20853,0.657 -0.0072,0.27562 0.376684,0.63585 1.012114,0.94973 0.522453,0.25802 0.681074,0.29502 1.156239,0.26945 z"
       id="path5831"
       inkscape:connector-curvature="0" />
  </g>
</svg>
