<?xml version="1.0" encoding="UTF-8" standalone="no"?>
<!-- Created with Inkscape (http://www.inkscape.org/) -->

<svg
   xmlns:dc="http://purl.org/dc/elements/1.1/"
   xmlns:cc="http://creativecommons.org/ns#"
   xmlns:rdf="http://www.w3.org/1999/02/22-rdf-syntax-ns#"
   xmlns:svg="http://www.w3.org/2000/svg"
   xmlns="http://www.w3.org/2000/svg"
   xmlns:sodipodi="http://sodipodi.sourceforge.net/DTD/sodipodi-0.dtd"
   xmlns:inkscape="http://www.inkscape.org/namespaces/inkscape"
   width="500"
   height="500"
   viewBox="0 0 132.29166 132.29167"
   version="1.1"
   id="svg2007"
   inkscape:version="0.92.2 5c3e80d, 2017-08-06"
   sodipodi:docname="on-campus.svg">
  <defs
     id="defs2001" />
  <sodipodi:namedview
     id="base"
     pagecolor="#ffffff"
     bordercolor="#666666"
     borderopacity="1.0"
     inkscape:pageopacity="0.0"
     inkscape:pageshadow="2"
     inkscape:zoom="1.4"
     inkscape:cx="122.80481"
     inkscape:cy="247.35524"
     inkscape:document-units="mm"
     inkscape:current-layer="layer1"
     showgrid="false"
     units="px"
     inkscape:window-width="1920"
     inkscape:window-height="1035"
     inkscape:window-x="0"
     inkscape:window-y="24"
     inkscape:window-maximized="1" />
  <metadata
     id="metadata2004">
    <rdf:RDF>
      <cc:Work
         rdf:about="">
        <dc:format>image/svg+xml</dc:format>
        <dc:type
           rdf:resource="http://purl.org/dc/dcmitype/StillImage" />
        <dc:title></dc:title>
      </cc:Work>
    </rdf:RDF>
  </metadata>
  <g
     inkscape:label="Layer 1"
     inkscape:groupmode="layer"
     id="layer1"
     transform="translate(0,-164.70832)">
    <circle
       style="opacity:0.95;fill:#141b1d;fill-opacity:1;stroke:none;stroke-width:0.2622022;stroke-opacity:1"
       id="path4504"
       cx="66.145836"
       cy="230.85416"
       r="66.145836" />
    <path
       style="fill:#0068b4;fill-opacity:1;stroke-width:0.04349925"
       d="m 91.134082,252.81347 c -1.83073,-0.0168 -4.748178,-0.0436 -6.483179,-0.0593 -1.735022,-0.0159 -7.687371,-0.0664 -13.227453,-0.11231 -5.540071,-0.046 -11.296628,-0.0949 -12.792322,-0.10897 -6.420676,-0.0602 -12.93856,-0.11255 -24.84497,-0.1995 -6.975954,-0.0509 -12.686611,-0.0955 -12.690351,-0.0988 -0.0038,-0.003 -0.09583,-1.82619 -0.204649,-4.05056 l -0.19785,-4.04431 -0.02429,-5.02276 c -0.01336,-2.76252 -0.03367,-5.36524 -0.04514,-5.7838 -0.01147,-0.41857 -0.03097,-2.49291 -0.04333,-4.60964 -0.01235,-2.11674 -0.03455,-4.39679 -0.04931,-5.06677 l -0.02685,-1.21815 -0.39106,-0.3039 -0.391061,-0.3039 0.189799,-0.0276 c 0.104387,-0.0152 0.389896,-0.0419 0.634459,-0.0595 0.244562,-0.0175 0.473734,-0.054 0.509273,-0.081 0.03554,-0.0271 0.577341,-1.28806 1.204009,-2.80216 l 1.139395,-2.75289 -0.110321,-0.25554 -0.11032,-0.25553 0.18035,-0.0294 c 0.212525,-0.0346 2.711788,-0.45994 5.227663,-0.88948 0.981181,-0.16752 2.172317,-0.37067 2.64697,-0.45145 l 0.863006,-0.14686 2.282535,0.81937 c 1.255395,0.45067 2.29639,0.82801 2.313321,0.83856 0.01693,0.0109 0.471338,0.5506 1.009791,1.20012 l 0.979004,1.18095 3.698463,-0.0244 c 2.034155,-0.0135 5.592829,-0.0374 7.90818,-0.0532 l 4.209724,-0.0287 -2.2e-5,-0.13445 c -2.2e-5,-0.074 -0.03932,-0.23775 -0.08733,-0.36401 -0.09982,-0.26236 -0.124753,-0.23999 0.348408,-0.31215 0.179488,-0.0274 0.339848,-0.0634 0.35637,-0.0802 0.01651,-0.0167 0.31543,-0.75447 0.664261,-1.63944 l 0.634228,-1.60902 0.651389,-0.97847 c 0.63048,-0.94704 0.675526,-1.00245 1.402528,-1.72564 l 0.751127,-0.74718 1.007901,-0.54972 c 0.586998,-0.32015 1.258853,-0.64828 1.608846,-0.78574 l 0.600946,-0.23602 3.329693,-4.4e-4 3.329693,-4.5e-4 1.47171,0.66362 1.47172,0.66362 0.710427,0.57695 0.710437,0.57695 0.757753,0.9888 c 0.416764,0.54384 0.789612,1.03763 0.828575,1.0973 0.138332,0.21196 1.213198,2.81109 1.321604,3.19579 0.06061,0.21508 0.130999,0.4039 0.156428,0.41961 0.02542,0.0157 0.171765,0.0419 0.325195,0.0584 0.346464,0.037 0.399613,0.12127 0.296215,0.46925 -0.03617,0.12168 -0.06572,0.2471 -0.06572,0.2787 0,0.0475 1.39991,0.0555 8.036388,0.0465 l 8.036398,-0.011 0.930442,-1.21764 c 0.511744,-0.6697 0.965538,-1.26529 1.008412,-1.32353 0.06343,-0.0862 0.130695,-0.11133 0.361714,-0.13524 0.168148,-0.0174 1.2102,-0.3092 2.557797,-0.71626 l 2.274049,-0.6869 4.71789,0.60445 c 2.59484,0.33246 4.7381,0.61694 4.76278,0.63219 0.0268,0.0166 -0.0256,0.13163 -0.13121,0.28689 l -0.1761,0.25918 0.85091,2.86618 c 0.46801,1.57639 0.85545,2.87154 0.86099,2.87811 0.005,0.007 0.31911,0.0305 0.69685,0.0533 0.37773,0.0227 0.693,0.0476 0.70059,0.0552 0.008,0.008 -0.0159,0.12733 -0.0521,0.26612 -0.0505,0.19356 -0.14391,0.35379 -0.40071,0.68792 l -0.33477,0.4356 0.0114,14.3133 c 0.0109,13.34889 0.0195,15.05516 0.0797,15.54181 l 0.0229,0.18482 -8.71581,-0.008 c -4.793695,-0.004 -10.213684,-0.0211 -12.044425,-0.0379 z"
       id="path3196"
       inkscape:connector-curvature="0" />
  </g>
</svg>
