<?xml version="1.0" encoding="UTF-8" standalone="no"?>
<!-- Created with Inkscape (http://www.inkscape.org/) -->

<svg
   xmlns:dc="http://purl.org/dc/elements/1.1/"
   xmlns:cc="http://creativecommons.org/ns#"
   xmlns:rdf="http://www.w3.org/1999/02/22-rdf-syntax-ns#"
   xmlns:svg="http://www.w3.org/2000/svg"
   xmlns="http://www.w3.org/2000/svg"
   xmlns:sodipodi="http://sodipodi.sourceforge.net/DTD/sodipodi-0.dtd"
   xmlns:inkscape="http://www.inkscape.org/namespaces/inkscape"
   width="500"
   height="500"
   viewBox="0 0 132.29166 132.29167"
   version="1.1"
   id="svg8"
   inkscape:version="0.92.2 5c3e80d, 2017-08-06"
   sodipodi:docname="programming.svg">
  <defs
     id="defs2" />
  <sodipodi:namedview
     id="base"
     pagecolor="#ffffff"
     bordercolor="#666666"
     borderopacity="1.0"
     inkscape:pageopacity="0.0"
     inkscape:pageshadow="2"
     inkscape:zoom="1.4"
     inkscape:cx="122.48565"
     inkscape:cy="293.82654"
     inkscape:document-units="mm"
     inkscape:current-layer="layer1"
     showgrid="false"
     units="px"
     inkscape:window-width="1920"
     inkscape:window-height="1035"
     inkscape:window-x="0"
     inkscape:window-y="24"
     inkscape:window-maximized="1" />
  <metadata
     id="metadata5">
    <rdf:RDF>
      <cc:Work
         rdf:about="">
        <dc:format>image/svg+xml</dc:format>
        <dc:type
           rdf:resource="http://purl.org/dc/dcmitype/StillImage" />
        <dc:title />
      </cc:Work>
    </rdf:RDF>
  </metadata>
  <g
     inkscape:label="Layer 1"
     inkscape:groupmode="layer"
     id="layer1"
     transform="translate(0,-164.70832)">
    <circle
       style="opacity:0.95;fill:#141b1d;fill-opacity:1;stroke:none;stroke-width:0.2622022;stroke-opacity:1"
       id="path4504"
       cx="66.145836"
       cy="230.85416"
       r="66.145836" />
    <path
       style="fill:none;fill-rule:evenodd;stroke:#000000;stroke-width:0.26458332px;stroke-linecap:butt;stroke-linejoin:miter;stroke-opacity:1"
       d="m -183.64403,147.05601 h 35.27958 l -0.53454,-16.30345 -1.06908,-2.13816 -1.87088,-1.60362 -8.28536,-3.20723 c -3.05434,-2.84343 -1.29298,-3.50954 0,-5.61266 3.89789,-4.00635 2.88767,-16.15474 -2.91032,-17.98256 -4.99959,-0.657281 -5.75096,-0.438851 -8.03986,0.8611 -6.73316,5.21569 -1.17144,14.99444 -0.6369,16.86532 0.35696,1.0424 1.59365,2.58211 1.53876,3.38231 -0.10168,0.92274 -0.12135,1.39301 -1.4577,2.373 l -5.48852,3.0831 -3.39623,0.84767 -2.67547,2.1868 -0.72075,7.09214 z"
       id="path4508-6"
       inkscape:connector-curvature="0"
       sodipodi:nodetypes="ccccccccccccccccc" />
    <path
       style="fill:#0068b4;fill-opacity:1;fill-rule:evenodd;stroke:none;stroke-width:0.26499999;stroke-linecap:butt;stroke-linejoin:miter;stroke-miterlimit:4;stroke-dasharray:none;stroke-opacity:1"
       d="m 21.703433,254.45789 h 35.279578 l -0.53454,-16.30345 -1.069079,-2.13816 -1.870887,-1.60362 -8.285353,-3.20722 c -3.054338,-2.84344 -1.292985,-3.50955 0,-5.61266 3.897891,-4.00635 2.887668,-16.15474 -2.910321,-17.98257 -4.999593,-0.65727 -5.750959,-0.43885 -8.039864,0.8611 -6.733158,5.21569 -1.171439,14.99444 -0.636898,16.86532 0.356962,1.0424 1.593652,2.58211 1.538764,3.38232 -0.10168,0.92273 -0.121356,1.39301 -1.457703,2.37299 l -5.488522,3.0831 -3.396222,0.84767 -2.675477,2.1868 -0.720745,7.09213 z"
       id="path4508"
       inkscape:connector-curvature="0"
       sodipodi:nodetypes="ccccccccccccccccc" />
    <path
       style="fill:#0068b4;fill-opacity:1;fill-rule:evenodd;stroke:none;stroke-width:0.26499999;stroke-linecap:butt;stroke-linejoin:miter;stroke-miterlimit:4;stroke-dasharray:none;stroke-opacity:1"
       d="m 50.396256,254.45789 h 35.279579 l -0.534541,-16.30345 -1.069078,-2.13817 -1.870887,-1.60361 -8.285354,-3.20723 c -3.054338,-2.84343 -1.292985,-3.50954 0,-5.61266 3.89789,-4.00635 2.887669,-16.15474 -2.910321,-17.98256 -4.999593,-0.65728 -5.750959,-0.43885 -8.039864,0.8611 -6.733158,5.21569 -1.171439,14.99444 -0.636898,16.86532 0.356962,1.0424 1.593652,2.58211 1.538764,3.38231 -0.10168,0.92274 -0.121356,1.39301 -1.457703,2.373 l -5.488522,3.0831 -3.396222,0.84767 -2.675477,2.1868 -0.720745,7.09213 z"
       id="path4508-7"
       inkscape:connector-curvature="0"
       sodipodi:nodetypes="ccccccccccccccccc" />
    <path
       style="fill:#0068b4;fill-opacity:1;fill-rule:evenodd;stroke:none;stroke-width:0.26499999;stroke-linecap:butt;stroke-linejoin:miter;stroke-miterlimit:4;stroke-dasharray:none;stroke-opacity:1"
       d="M 75.575927,254.45789 H 110.8555 l -0.53454,-16.30345 -1.06908,-2.13817 -1.87089,-1.60361 -8.285342,-3.20723 c -3.05434,-2.84343 -1.29299,-3.50954 0,-5.61266 3.897882,-4.00635 2.887662,-16.15474 -2.910323,-17.98256 -4.999593,-0.65728 -5.750959,-0.43885 -8.039864,0.8611 -6.733158,5.21569 -1.171439,14.99444 -0.636898,16.86532 0.356962,1.0424 1.593652,2.58211 1.538764,3.38231 -0.10168,0.92274 -0.121356,1.39301 -1.457703,2.373 l -5.488521,3.0831 -3.396223,0.84767 -2.675477,2.1868 -0.720745,7.09213 z"
       id="path4508-5"
       inkscape:connector-curvature="0"
       sodipodi:nodetypes="ccccccccccccccccc" />
  </g>
</svg>
